<svg width="105" height="84" viewBox="0 0 105 84" fill="black" xmlns="http://www.w3.org/2000/svg">
<g clip-path="url(#clip0_209_36)">
<path d="M83.3336 56.2568C89.4431 58.2516 95.4868 60.1937 101.504 62.2281C102.327 62.5046 103.19 63.0774 103.696 63.762C104.5 64.8483 104.388 66.119 103.506 67.2118C102.459 68.5022 101.116 68.5154 99.6805 68.0216C95.7502 66.6786 91.833 65.2763 87.8763 64.0122C80.213 61.5565 72.721 61.8396 65.2882 65.1644C60.6402 67.2448 55.7552 68.6932 50.5213 68.285C46.0314 67.936 41.9035 66.2967 37.7888 64.6838C33.1869 62.8864 28.4665 61.5105 23.5618 62.5836C18.3081 63.7291 13.1598 65.3684 7.97198 66.8366C6.8857 67.146 5.85209 67.6332 4.77897 68.015C2.79733 68.7261 1.11853 68.0809 0.473345 66.3823C-0.185008 64.6574 0.624766 63.0774 2.61958 62.3202C8.66984 60.0292 14.7399 57.7841 21.1522 56.7176C18.3608 36.8418 33.9572 20.442 52.5556 20.6198C69.6201 20.7844 85.7235 35.4394 83.3336 56.2568ZM27.2288 56.2107C32.3969 56.1382 36.7618 57.8763 41.1991 59.4564C44.1353 60.5032 47.1374 61.4907 50.1856 62.0701C54.3793 62.8601 58.2767 61.3064 62.1478 59.8909C66.7036 58.2187 71.187 56.2699 76.1773 56.1909C76.5328 56.1843 77.178 55.3877 77.178 54.9598C77.178 52.4317 77.2834 49.8575 76.8884 47.3821C74.65 33.4907 60.3505 24.0696 46.6897 27.3614C36.2614 29.8763 28.7035 38.04 27.2749 48.6066C26.9457 51.0689 27.2288 53.6233 27.2288 56.2107Z" fill="#6B79FF"/>
<path d="M35.9717 73.3543C39.0594 74.2497 42.2787 74.8488 45.2084 76.1129C49.9946 78.1801 54.5702 78.3249 59.2577 76.0339C66.0124 72.7355 72.8 73.6506 79.5744 76.0009C81.4639 76.6593 83.3534 77.3045 85.2099 78.0353C87.0204 78.7463 87.7841 80.4646 87.1192 82.1039C86.5069 83.6116 84.7754 84.2963 83.0374 83.7301C79.8049 82.6833 76.5855 81.6036 73.3333 80.6226C69.4951 79.4639 65.8083 79.9972 62.0886 81.4192C59.2906 82.4924 56.3543 83.3548 53.3983 83.842C49.6457 84.4609 46.1104 83.0717 42.7528 81.5838C37.7822 79.3783 32.8906 79.6482 27.9267 81.439C25.7936 82.2093 23.6539 82.9532 21.5077 83.684C19.5919 84.3358 17.9592 83.684 17.3338 82.0447C16.6754 80.3329 17.5049 78.6541 19.4537 77.9826C24.0885 76.3762 28.6113 74.3748 33.5885 73.9732C34.339 73.9139 35.0961 73.8284 35.8466 73.7494C35.8861 73.6177 35.9256 73.486 35.9717 73.3543Z" fill="#6B79FF"/>
<path d="M6.43801 54.9598C5.41098 54.9598 4.37737 54.9993 3.35034 54.9532C1.5662 54.8676 0.315331 53.6826 0.236329 52.0498C0.157326 50.4829 1.37528 48.9753 3.087 48.87C5.29906 48.7383 7.53088 48.7383 9.74294 48.87C11.5073 48.9753 12.6199 50.3644 12.5739 52.0301C12.5278 53.7155 11.3559 54.861 9.52569 54.9532C8.49866 54.9993 7.47163 54.9598 6.43801 54.9598Z" fill="#6B79FF"/>
<path d="M97.9293 54.9664C96.955 54.9664 95.9806 54.9993 95.0062 54.9598C93.1102 54.8808 91.8725 53.6892 91.8527 51.9577C91.833 50.3184 93.0048 48.949 94.7692 48.8568C96.9286 48.7449 99.1012 48.7449 101.261 48.8568C102.999 48.949 104.217 50.3644 104.19 51.9577C104.164 53.6628 102.9 54.8808 101.017 54.9532C99.9834 54.9993 98.9563 54.9664 97.9293 54.9664Z" fill="#6B79FF"/>
<path d="M73.7019 18.276C71.3582 17.9469 69.8374 15.8467 70.7591 13.944C71.7861 11.8175 72.9909 9.77005 74.2615 7.7818C75.1503 6.39267 76.9213 6.12274 78.2577 6.94569C79.581 7.75547 80.1406 9.44087 79.3835 10.9024C78.3696 12.8577 77.2965 14.7999 76.0457 16.6104C75.5387 17.3543 74.4985 17.7296 73.7019 18.276Z" fill="#6B79FF"/>
<path d="M30.6654 18.309C29.8556 17.7033 28.8286 17.249 28.2756 16.459C27.1103 14.7867 26.1623 12.9631 25.1945 11.1658C24.3123 9.53962 24.7665 7.80155 26.2018 6.93252C27.6633 6.0569 29.4079 6.47167 30.3889 8.0649C31.541 9.94122 32.6799 11.8439 33.6411 13.819C34.6023 15.8072 33.121 17.96 30.6654 18.309Z" fill="#6B79FF"/>
<path d="M14.9637 33.6026C14.7069 33.5105 14.0749 33.3722 13.5285 33.0759C11.876 32.174 10.2433 31.2325 8.62374 30.2713C6.85278 29.2114 6.31951 27.4536 7.25437 25.8867C8.15631 24.3724 9.86145 23.984 11.6258 24.965C13.4166 25.9591 15.2139 26.9466 16.9256 28.0592C18.0843 28.8164 18.6834 29.9619 18.2159 31.4103C17.7617 32.7731 16.8466 33.5697 14.9637 33.6026Z" fill="#6B79FF"/>
<path d="M89.1403 33.5895C87.659 33.5895 86.7242 32.8192 86.2501 31.463C85.7761 30.1002 86.2633 28.9151 87.3562 28.1975C89.3378 26.9071 91.405 25.7418 93.5052 24.6555C94.7495 24.0103 95.9477 24.4514 96.8562 25.4587C97.7845 26.4924 97.8569 27.7037 97.2512 28.9217C96.6785 30.0738 90.4899 33.5895 89.1403 33.5895Z" fill="#6B79FF"/>
<path d="M55.2088 6.07665C55.2088 7.15636 55.2417 8.24265 55.2022 9.32236C55.143 11.0275 53.8263 12.3574 52.2396 12.3771C50.6793 12.3969 49.2836 11.0407 49.2441 9.36186C49.198 7.19586 49.198 5.02986 49.2441 2.86386C49.2836 1.17188 50.4687 0.0395014 52.1211 -9.48785e-08C53.8592 -0.0395016 55.1166 1.08629 55.2022 2.82436C55.2483 3.90407 55.2088 4.99036 55.2088 6.07665Z" fill="#6B79FF"/>
</g>
<defs>
<clipPath id="clip0_209_36">
<rect width="104" height="84" fill="black" transform="translate(0.236328)"/>
</clipPath>
</defs>
</svg>
